<?xml version="1.0" encoding="utf-8"?>
<!-- Generator: Adobe Illustrator 19.1.0, SVG Export Plug-In . SVG Version: 6.00 Build 0)  -->
<svg version="1.1" id="Layer_1" xmlns="http://www.w3.org/2000/svg" xmlns:xlink="http://www.w3.org/1999/xlink" x="0px" y="0px"
	 viewBox="0 0 200 200" style="enable-background:new 0 0 200 200;" xml:space="preserve">
<style type="text/css">
	.st0{fill:#FFFFFF;stroke:#000000;stroke-width:4;stroke-miterlimit:10;}
</style>
<ellipse class="st0" cx="54" cy="52.5" rx="36" ry="33.5"/>
<g>
	<g>
		<path d="M34.1,40.4c-1.9,1.1-3.9,2.2-5.8,3.3c-1.7,1-0.2,3.5,1.5,2.6c1.9-1.1,3.9-2.2,5.8-3.3C37.3,42,35.8,39.5,34.1,40.4
			L34.1,40.4z"/>
	</g>
</g>
<g>
	<g>
		<path d="M62.5,42.6c3.1-0.9,6.2-0.4,8.9,1.5c1.6,1.1,3.1-1.5,1.5-2.6c-3.3-2.3-7.4-2.9-11.2-1.8C59.8,40.3,60.6,43.2,62.5,42.6
			L62.5,42.6z"/>
	</g>
</g>
<g>
	<g>
		<path d="M37.3,68.3c4.1-4.7,9.8-6.3,15.9-6.8c4.4-0.4,14.3-1.7,15.7,4.1c0.4,1.9,3.3,1.1,2.9-0.8c-1.6-6.8-10.1-6.7-15.7-6.5
			c-7.7,0.3-15.6,1.8-20.9,7.9C33.9,67.6,36.1,69.7,37.3,68.3L37.3,68.3z"/>
	</g>
</g>
<ellipse class="st0" cx="100" cy="100.5" rx="36" ry="33.5"/>
<g>
	<g>
		<path d="M80.1,88.4c-1.9,1.1-3.9,2.2-5.8,3.3c-1.7,1-0.2,3.5,1.5,2.6c1.9-1.1,3.9-2.2,5.8-3.3C83.3,90,81.8,87.5,80.1,88.4
			L80.1,88.4z"/>
	</g>
</g>
<g>
	<g>
		<path d="M108.5,90.6c3.1-0.9,6.2-0.4,8.9,1.5c1.6,1.1,3.1-1.5,1.5-2.6c-3.3-2.3-7.4-2.9-11.2-1.8
			C105.8,88.3,106.6,91.2,108.5,90.6L108.5,90.6z"/>
	</g>
</g>
<g>
	<g>
		<path d="M83.3,116.3c4.1-4.7,9.8-6.3,15.9-6.8c4.4-0.4,14.3-1.7,15.7,4.1c0.4,1.9,3.3,1.1,2.9-0.8c-1.6-6.8-10.1-6.7-15.7-6.5
			c-7.7,0.3-15.6,1.8-20.9,7.9C79.9,115.6,82.1,117.7,83.3,116.3L83.3,116.3z"/>
	</g>
</g>
<ellipse class="st0" cx="100" cy="100.5" rx="36" ry="33.5"/>
<g>
	<g>
		<path d="M80.1,88.4c-1.9,1.1-3.9,2.2-5.8,3.3c-1.7,1-0.2,3.5,1.5,2.6c1.9-1.1,3.9-2.2,5.8-3.3C83.3,90,81.8,87.5,80.1,88.4
			L80.1,88.4z"/>
	</g>
</g>
<g>
	<g>
		<path d="M108.5,90.6c3.1-0.9,6.2-0.4,8.9,1.5c1.6,1.1,3.1-1.5,1.5-2.6c-3.3-2.3-7.4-2.9-11.2-1.8
			C105.8,88.3,106.6,91.2,108.5,90.6L108.5,90.6z"/>
	</g>
</g>
<g>
	<g>
		<path d="M83.3,116.3c4.1-4.7,9.8-6.3,15.9-6.8c4.4-0.4,14.3-1.7,15.7,4.1c0.4,1.9,3.3,1.1,2.9-0.8c-1.6-6.8-10.1-6.7-15.7-6.5
			c-7.7,0.3-15.6,1.8-20.9,7.9C79.9,115.6,82.1,117.7,83.3,116.3L83.3,116.3z"/>
	</g>
</g>
<ellipse class="st0" cx="126" cy="40.5" rx="36" ry="33.5"/>
<g>
	<g>
		<path d="M106.1,28.4c-1.9,1.1-3.9,2.2-5.8,3.3c-1.7,1-0.2,3.5,1.5,2.6c1.9-1.1,3.9-2.2,5.8-3.3C109.3,30,107.8,27.5,106.1,28.4
			L106.1,28.4z"/>
	</g>
</g>
<g>
	<g>
		<path d="M134.5,30.6c3.1-0.9,6.2-0.4,8.9,1.5c1.6,1.1,3.1-1.5,1.5-2.6c-3.3-2.3-7.4-2.9-11.2-1.8
			C131.8,28.3,132.6,31.2,134.5,30.6L134.5,30.6z"/>
	</g>
</g>
<g>
	<g>
		<path d="M109.3,56.3c4.1-4.7,9.8-6.3,15.9-6.8c4.4-0.4,14.3-1.7,15.7,4.1c0.4,1.9,3.3,1.1,2.9-0.8c-1.6-6.8-10.1-6.7-15.7-6.5
			c-7.7,0.3-15.6,1.8-20.9,7.9C105.9,55.6,108.1,57.7,109.3,56.3L109.3,56.3z"/>
	</g>
</g>
<ellipse class="st0" cx="152" cy="100.5" rx="36" ry="33.5"/>
<g>
	<g>
		<path d="M132.1,88.4c-1.9,1.1-3.9,2.2-5.8,3.3c-1.7,1-0.2,3.5,1.5,2.6c1.9-1.1,3.9-2.2,5.8-3.3C135.3,90,133.8,87.5,132.1,88.4
			L132.1,88.4z"/>
	</g>
</g>
<g>
	<g>
		<path d="M160.5,90.6c3.1-0.9,6.2-0.4,8.9,1.5c1.6,1.1,3.1-1.5,1.5-2.6c-3.3-2.3-7.4-2.9-11.2-1.8
			C157.8,88.3,158.6,91.2,160.5,90.6L160.5,90.6z"/>
	</g>
</g>
<g>
	<g>
		<path d="M135.3,116.3c4.1-4.7,9.8-6.3,15.9-6.8c4.4-0.4,14.3-1.7,15.7,4.1c0.4,1.9,3.3,1.1,2.9-0.8c-1.6-6.8-10.1-6.7-15.7-6.5
			c-7.7,0.3-15.6,1.8-20.9,7.9C131.9,115.6,134.1,117.7,135.3,116.3L135.3,116.3z"/>
	</g>
</g>
<ellipse class="st0" cx="46" cy="115.5" rx="36" ry="33.5"/>
<g>
	<g>
		<path d="M26.1,103.4c-1.9,1.1-3.9,2.2-5.8,3.3c-1.7,1-0.2,3.5,1.5,2.6c1.9-1.1,3.9-2.2,5.8-3.3C29.3,105,27.8,102.5,26.1,103.4
			L26.1,103.4z"/>
	</g>
</g>
<g>
	<g>
		<path d="M54.5,105.6c3.1-0.9,6.2-0.4,8.9,1.5c1.6,1.1,3.1-1.5,1.5-2.6c-3.3-2.3-7.4-2.9-11.2-1.8
			C51.8,103.3,52.6,106.2,54.5,105.6L54.5,105.6z"/>
	</g>
</g>
<g>
	<g>
		<path d="M29.3,131.3c4.1-4.7,9.8-6.3,15.9-6.8c4.4-0.4,14.3-1.7,15.7,4.1c0.4,1.9,3.3,1.1,2.9-0.8c-1.6-6.8-10.1-6.7-15.7-6.5
			c-7.7,0.3-15.6,1.8-20.9,7.9C25.9,130.6,28.1,132.7,29.3,131.3L29.3,131.3z"/>
	</g>
</g>
<ellipse class="st0" cx="107" cy="156.5" rx="36" ry="33.5"/>
<g>
	<g>
		<path d="M87.1,144.4c-1.9,1.1-3.9,2.2-5.8,3.3c-1.7,1-0.2,3.5,1.5,2.6c1.9-1.1,3.9-2.2,5.8-3.3C90.3,146,88.8,143.5,87.1,144.4
			L87.1,144.4z"/>
	</g>
</g>
<g>
	<g>
		<path d="M115.5,146.6c3.1-0.9,6.2-0.4,8.9,1.5c1.6,1.1,3.1-1.5,1.5-2.6c-3.3-2.3-7.4-2.9-11.2-1.8
			C112.8,144.3,113.6,147.2,115.5,146.6L115.5,146.6z"/>
	</g>
</g>
<g>
	<g>
		<path d="M90.3,172.3c4.1-4.7,9.8-6.3,15.9-6.8c4.4-0.4,14.3-1.7,15.7,4.1c0.4,1.9,3.3,1.1,2.9-0.8c-1.6-6.8-10.1-6.7-15.7-6.5
			c-7.7,0.3-15.6,1.8-20.9,7.9C86.9,171.6,89.1,173.7,90.3,172.3L90.3,172.3z"/>
	</g>
</g>
<ellipse class="st0" cx="100" cy="100.5" rx="36" ry="33.5"/>
<g>
	<g>
		<path d="M80.1,88.4c-1.9,1.1-3.9,2.2-5.8,3.3c-1.7,1-0.2,3.5,1.5,2.6c1.9-1.1,3.9-2.2,5.8-3.3C83.3,90,81.8,87.5,80.1,88.4
			L80.1,88.4z"/>
	</g>
</g>
<g>
	<g>
		<path d="M108.5,90.6c3.1-0.9,6.2-0.4,8.9,1.5c1.6,1.1,3.1-1.5,1.5-2.6c-3.3-2.3-7.4-2.9-11.2-1.8
			C105.8,88.3,106.6,91.2,108.5,90.6L108.5,90.6z"/>
	</g>
</g>
<g>
	<g>
		<path d="M83.3,116.3c4.1-4.7,9.8-6.3,15.9-6.8c4.4-0.4,14.3-1.7,15.7,4.1c0.4,1.9,3.3,1.1,2.9-0.8c-1.6-6.8-10.1-6.7-15.7-6.5
			c-7.7,0.3-15.6,1.8-20.9,7.9C79.9,115.6,82.1,117.7,83.3,116.3L83.3,116.3z"/>
	</g>
</g>
</svg>
