<?xml version="1.0" encoding="utf-8"?>
<!-- Generator: Adobe Illustrator 19.1.0, SVG Export Plug-In . SVG Version: 6.00 Build 0)  -->
<svg version="1.1" id="Layer_1" xmlns="http://www.w3.org/2000/svg" xmlns:xlink="http://www.w3.org/1999/xlink" x="0px" y="0px"
	 viewBox="0 0 200 88" style="enable-background:new 0 0 200 88;" xml:space="preserve">
<style type="text/css">
	.st0{font-family:'Lato-Bold';}
	.st1{font-size:30.8654px;}
	.st2{font-size:60px;}
</style>
<text transform="matrix(1 0 0 1 129.5421 59.3355)" class="st0 st1">$$$</text>
<g>
	<g>
		<path d="M50.2,28.6c-7.8-2.1-11.9,12.2-4.5,14.9c3.1,1.1,6.9-0.5,8.6-3.3c2.5-4,0.7-9-1.5-12.7c-1-1.6-3.6-0.1-2.6,1.5
			c2.1,3.5,4.2,11-1.9,11.8c-5.6,0.7-3.6-10.6,1.1-9.3C51.3,32,52.1,29.1,50.2,28.6L50.2,28.6z"/>
	</g>
</g>
<g>
	<g>
		<path d="M45.9,45c-0.6,6-1.2,12.1-0.2,18.2c0.9,6,3.7,10.9,6.9,16c1,1.6,3.6,0.1,2.6-1.5c-3.2-5-5.9-9.9-6.6-15.9
			c-0.7-5.6-0.1-11.2,0.4-16.7C49.1,43.1,46.1,43.1,45.9,45L45.9,45z"/>
	</g>
</g>
<g>
	<g>
		<path d="M44.4,66.1c-1.9,4.7-4.3,9.1-7.1,13.2c-1.1,1.6,1.5,3.1,2.6,1.5c3-4.4,5.4-9,7.4-13.9C48,65.1,45.1,64.3,44.4,66.1
			L44.4,66.1z"/>
	</g>
</g>
<g>
	<g>
		<path d="M36.8,48.8c-1.4,2-1.2,4.5,0.4,6.4c2,2.4,5.5,2.6,8.4,2.6c6.2-0.2,12.9-3.8,11.7-10.9c-0.3-1.9-3.2-1.1-2.9,0.8
			c0.8,4.5-3.9,6.7-7.6,7c-2.3,0.2-10.4-0.2-7.4-4.4C40.5,48.7,37.9,47.2,36.8,48.8L36.8,48.8z"/>
	</g>
</g>
<g>
	<g>
		<path d="M72.4,21.4c-7.8-2.1-11.9,12.2-4.5,14.9c3.1,1.1,6.9-0.5,8.6-3.3c2.5-4,0.7-9-1.5-12.7c-1-1.6-3.6-0.1-2.6,1.5
			c2.1,3.5,4.2,11-1.9,11.8c-5.6,0.7-3.6-10.6,1.1-9.3C73.5,24.8,74.3,21.9,72.4,21.4L72.4,21.4z"/>
	</g>
</g>
<g>
	<g>
		<path d="M68.1,37.8C67.5,43.9,67,50,67.9,56c0.9,6,3.7,10.9,6.9,16c1,1.6,3.6,0.1,2.6-1.5c-3.2-5-5.9-9.9-6.6-15.9
			C70,49,70.6,43.4,71.1,37.8C71.3,35.9,68.3,35.9,68.1,37.8L68.1,37.8z"/>
	</g>
</g>
<g>
	<g>
		<path d="M66.6,58.9c-1.9,4.7-4.3,9.1-7.1,13.2c-1.1,1.6,1.5,3.1,2.6,1.5c3-4.4,5.4-9,7.4-13.9C70.2,57.9,67.3,57.2,66.6,58.9
			L66.6,58.9z"/>
	</g>
</g>
<g>
	<g>
		<path d="M59,41.6c-1.4,2-1.2,4.5,0.4,6.4c2,2.4,5.5,2.6,8.4,2.6c6.2-0.2,12.9-3.8,11.7-10.9c-0.3-1.9-3.2-1.1-2.9,0.8
			c0.8,4.5-3.9,6.7-7.6,7c-2.3,0.2-10.4-0.2-7.4-4.4C62.7,41.6,60.1,40.1,59,41.6L59,41.6z"/>
	</g>
</g>
<g>
	<g>
		<path d="M32.3,23.6c-7.8-2.1-11.9,12.2-4.5,14.9c3.1,1.1,6.9-0.5,8.6-3.3c2.5-4,0.7-9-1.5-12.7c-1-1.6-3.6-0.1-2.6,1.5
			c2.1,3.5,4.2,11-1.9,11.8c-5.6,0.7-3.6-10.6,1.1-9.3C33.4,27,34.2,24.1,32.3,23.6L32.3,23.6z"/>
	</g>
</g>
<g>
	<g>
		<path d="M28,40c-0.6,6-1.2,12.1-0.2,18.2c0.9,6,3.7,10.9,6.9,16c1,1.6,3.6,0.1,2.6-1.5c-3.2-5-5.9-9.9-6.6-15.9
			C29.9,51.2,30.5,45.6,31,40C31.2,38.1,28.2,38.1,28,40L28,40z"/>
	</g>
</g>
<g>
	<g>
		<path d="M26.5,61.1c-1.9,4.7-4.3,9.1-7.1,13.2c-1.1,1.6,1.5,3.1,2.6,1.5c3-4.4,5.4-9,7.4-13.9C30.1,60.1,27.2,59.3,26.5,61.1
			L26.5,61.1z"/>
	</g>
</g>
<g>
	<g>
		<path d="M18.9,43.8c-1.4,2-1.2,4.5,0.4,6.4c2,2.4,5.5,2.6,8.4,2.6c6.2-0.2,12.9-3.8,11.7-10.9c-0.3-1.9-3.2-1.1-2.9,0.8
			c0.8,4.5-3.9,6.7-7.6,7c-2.3,0.2-10.4-0.2-7.4-4.4C22.6,43.7,20,42.2,18.9,43.8L18.9,43.8z"/>
	</g>
</g>
<text transform="matrix(1 0 0 1 86.5421 66.597)" class="st0 st2">=</text>
</svg>
